<?xml version="1.0" standalone="no"?>
<!DOCTYPE svg PUBLIC "-//W3C//DTD SVG 20010904//EN"
 "http://www.w3.org/TR/2001/REC-SVG-20010904/DTD/svg10.dtd">
<svg version="1.0" xmlns="http://www.w3.org/2000/svg"
 width="187.000000pt" height="187.000000pt" viewBox="0 0 187.000000 187.000000"
 preserveAspectRatio="xMidYMid meet">
<metadata>
Created by potrace 1.11, written by Peter Selinger 2001-2013
</metadata>
<g transform="translate(0.000000,187.000000) scale(0.100000,-0.100000)"
fill="#000000" stroke="none">
<path d="M1809 1714 c-118 -123 -252 -172 -549 -199 -41 -4 -84 -9 -95 -11
-11 -2 -47 -6 -80 -9 -33 -3 -71 -7 -85 -9 -14 -3 -43 -7 -65 -10 -102 -15
-249 -51 -338 -83 -350 -125 -545 -337 -586 -635 -20 -146 9 -250 81 -296 18
-12 34 -19 36 -18 1 2 12 37 23 77 38 136 99 248 190 343 167 177 377 282 709
355 74 16 187 48 250 70 63 22 116 38 118 36 12 -11 -238 -116 -420 -176 -280
-92 -361 -134 -521 -268 -150 -126 -227 -290 -253 -543 l-7 -66 39 -26 c74
-48 120 -60 244 -59 312 2 599 134 829 381 45 48 81 91 79 95 -2 5 4 12 13 17
25 14 112 145 173 261 108 205 190 438 241 683 14 70 24 130 22 132 -2 2 -23
-17 -48 -42z"/>
</g>
</svg>
